<svg width="1600" height="500" viewBox="0 0 1600 500" fill="none" xmlns="http://www.w3.org/2000/svg" role="img" aria-labelledby="title description">
  <title id="title">IncidentLens AI</title>
  <desc id="description">Incident intelligence for evidence-grounded investigation and controlled response.</desc>

  <rect width="1600" height="500" rx="28" fill="#090D12"/>
  <rect x="1" y="1" width="1598" height="498" rx="27" stroke="#26313B" stroke-opacity="0.9"/>

  <g opacity="0.45">
    <path d="M80 0V500M160 0V500M240 0V500M320 0V500M400 0V500M480 0V500M560 0V500M640 0V500M720 0V500M800 0V500M880 0V500M960 0V500M1040 0V500M1120 0V500M1200 0V500M1280 0V500M1360 0V500M1440 0V500M1520 0V500" stroke="#172029"/>
    <path d="M0 100H1600M0 200H1600M0 300H1600M0 400H1600" stroke="#172029"/>
  </g>

  <g transform="translate(82 72)">
    <rect width="58" height="58" rx="16" fill="#111820" stroke="#33404B"/>
    <path d="M13 30.5C17.8 19.8 24.4 14.5 32.7 14.5C39 14.5 43.7 17.5 46.8 23.5" stroke="#748391" stroke-width="2" stroke-linecap="round"/>
    <path d="M45 27.5C40.2 38.2 33.6 43.5 25.3 43.5C19 43.5 14.3 40.5 11.2 34.5" stroke="#56B8C7" stroke-width="2.5" stroke-linecap="round"/>
    <circle cx="29" cy="29" r="7.5" stroke="#E8EDF2" stroke-width="2"/>
    <circle cx="29" cy="29" r="2.5" fill="#56B8C7"/>
  </g>

  <text x="160" y="92" fill="#E8EDF2" font-family="Geist, ui-sans-serif, sans-serif" font-size="22" font-weight="650" letter-spacing="-0.4">IncidentLens</text>
  <text x="160" y="119" fill="#7D8A99" font-family="JetBrains Mono, ui-monospace, monospace" font-size="10" font-weight="500" letter-spacing="2.1">INCIDENT INTELLIGENCE</text>

  <text x="80" y="245" fill="#F2F5F7" font-family="Geist, ui-sans-serif, sans-serif" font-size="64" font-weight="620" letter-spacing="-2.8">Evidence in.</text>
  <text x="80" y="316" fill="#93A1AE" font-family="Geist, ui-sans-serif, sans-serif" font-size="64" font-weight="620" letter-spacing="-2.8">Decisions out.</text>
  <text x="84" y="368" fill="#7D8A99" font-family="Geist, ui-sans-serif, sans-serif" font-size="18" font-weight="430" letter-spacing="0.1">Grounded investigation, explainable reasoning, controlled response.</text>

  <g transform="translate(84 417)">
    <circle cx="5" cy="5" r="5" fill="#56B8C7"/>
    <text x="22" y="10" fill="#B8C3CC" font-family="JetBrains Mono, ui-monospace, monospace" font-size="12" font-weight="500" letter-spacing="1.3">RAG</text>
    <path d="M76 5H108" stroke="#33404B"/>
    <text x="124" y="10" fill="#B8C3CC" font-family="JetBrains Mono, ui-monospace, monospace" font-size="12" font-weight="500" letter-spacing="1.3">AGENT TRACE</text>
    <path d="M249 5H281" stroke="#33404B"/>
    <text x="297" y="10" fill="#B8C3CC" font-family="JetBrains Mono, ui-monospace, monospace" font-size="12" font-weight="500" letter-spacing="1.3">EVALUATION</text>
    <path d="M413 5H445" stroke="#33404B"/>
    <text x="461" y="10" fill="#B8C3CC" font-family="JetBrains Mono, ui-monospace, monospace" font-size="12" font-weight="500" letter-spacing="1.3">GOVERNANCE</text>
  </g>

  <g transform="translate(940 68)">
    <text x="0" y="12" fill="#64717D" font-family="JetBrains Mono, ui-monospace, monospace" font-size="10" font-weight="500" letter-spacing="1.5">INCIDENT / PAYMENT API</text>
    <text x="492" y="12" fill="#DE786F" font-family="JetBrains Mono, ui-monospace, monospace" font-size="10" font-weight="600" letter-spacing="1.5">SEV-1</text>
    <path d="M0 35H560" stroke="#2A343E"/>

    <path d="M0 154H560" stroke="#202A33"/>
    <path d="M0 234H560" stroke="#202A33"/>
    <path d="M0 314H560" stroke="#202A33"/>
    <path d="M80 75V354M160 75V354M240 75V354M320 75V354M400 75V354M480 75V354" stroke="#182129"/>

    <path d="M0 296C39 294 53 291 82 293C113 295 125 290 159 292C197 294 211 287 239 289C273 292 284 279 319 281C348 283 363 241 399 244C428 246 447 128 480 133C511 138 529 102 560 108" stroke="#56B8C7" stroke-width="3" stroke-linecap="round" stroke-linejoin="round"/>
    <path d="M0 316C42 315 61 310 94 312C129 314 145 307 180 309C216 311 236 302 269 304C306 306 327 297 360 299C399 302 417 289 450 291C492 293 518 275 560 278" stroke="#748391" stroke-width="1.5" stroke-linecap="round" stroke-dasharray="4 8"/>

    <path d="M480 76V354" stroke="#DE786F" stroke-width="1.5" stroke-dasharray="3 6"/>
    <circle cx="480" cy="133" r="6" fill="#090D12" stroke="#DE786F" stroke-width="3"/>
    <rect x="374" y="52" width="106" height="28" rx="6" fill="#25191A" stroke="#6A3332"/>
    <text x="387" y="70" fill="#E89A92" font-family="JetBrains Mono, ui-monospace, monospace" font-size="10" font-weight="600" letter-spacing="0.8">REGRESSION</text>

    <circle cx="399" cy="244" r="5" fill="#090D12" stroke="#56B8C7" stroke-width="2.5"/>
    <rect x="282" y="205" width="117" height="26" rx="6" fill="#101B21" stroke="#2B5962"/>
    <text x="294" y="222" fill="#8CD0DA" font-family="JetBrains Mono, ui-monospace, monospace" font-size="9" font-weight="600" letter-spacing="0.8">SIGNAL FOUND</text>

    <text x="0" y="385" fill="#64717D" font-family="JetBrains Mono, ui-monospace, monospace" font-size="10" letter-spacing="1.2">09:40</text>
    <text x="256" y="385" fill="#64717D" font-family="JetBrains Mono, ui-monospace, monospace" font-size="10" letter-spacing="1.2">10:00</text>
    <text x="518" y="385" fill="#64717D" font-family="JetBrains Mono, ui-monospace, monospace" font-size="10" letter-spacing="1.2">10:20</text>
  </g>
</svg>
